<svg width="199" height="73" viewBox="0 0 199 73" fill="none" xmlns="http://www.w3.org/2000/svg">
<g filter="url(#filter0_dd_1_5667)">
<rect x="16.0546" y="8.07837" width="166" height="40" rx="20" fill="white"/>
<path d="M50.7213 35.5783L52.3879 35.5783L56.5546 28.9117L61.1379 28.9117C61.8296 28.9117 62.3879 28.3533 62.3879 27.6617C62.3879 26.97 61.8296 26.4117 61.1379 26.4117L56.5546 26.4117L52.3879 19.745L50.7213 19.745L52.8046 26.4117L48.2213 26.4117L46.9713 24.745L45.7213 24.745L46.5546 27.6617L45.7213 30.5783L46.9713 30.5783L48.2213 28.9117L52.8046 28.9117L50.7213 35.5783Z" fill="#42A7C3"/>
<path d="M77.0456 29.6134C77.0456 30.1734 76.9756 30.675 76.8356 31.1184C76.7002 31.5617 76.4972 31.9374 76.2266 32.2454C75.9606 32.5487 75.6316 32.782 75.2396 32.9454C74.8476 33.1087 74.3972 33.1904 73.8886 33.1904C73.4359 33.1904 72.9646 33.125 72.4746 32.9944C72.4839 32.859 72.4956 32.726 72.5096 32.5954C72.5236 32.46 72.5376 32.327 72.5516 32.1964C72.5609 32.117 72.5889 32.054 72.6356 32.0074C72.6869 31.956 72.7616 31.9304 72.8596 31.9304C72.9436 31.9304 73.0556 31.9514 73.1956 31.9934C73.3356 32.0354 73.5222 32.0564 73.7556 32.0564C74.0636 32.0564 74.3366 32.0097 74.5746 31.9164C74.8172 31.823 75.0202 31.6784 75.1836 31.4824C75.3516 31.2864 75.4776 31.0367 75.5616 30.7334C75.6502 30.4254 75.6946 30.0614 75.6946 29.6414V23.0474H77.0456V29.6134ZM84.6803 33.0784H84.1273C84.0059 33.0784 83.9079 33.0597 83.8333 33.0224C83.7586 32.985 83.7096 32.9057 83.6863 32.7844L83.5463 32.1264C83.3596 32.2944 83.1776 32.446 83.0003 32.5814C82.8229 32.712 82.6363 32.824 82.4403 32.9174C82.2443 33.006 82.0343 33.0737 81.8103 33.1204C81.5909 33.167 81.3459 33.1904 81.0753 33.1904C80.7999 33.1904 80.5409 33.153 80.2983 33.0784C80.0603 32.999 79.8526 32.8824 79.6753 32.7284C79.4979 32.5744 79.3556 32.3807 79.2483 32.1474C79.1456 31.9094 79.0943 31.6294 79.0943 31.3074C79.0943 31.0274 79.1713 30.759 79.3253 30.5024C79.4793 30.241 79.7266 30.01 80.0673 29.8094C80.4126 29.6087 80.8629 29.4454 81.4183 29.3194C81.9736 29.1887 82.6526 29.114 83.4553 29.0954V28.5424C83.4553 27.9917 83.3363 27.5764 83.0983 27.2964C82.8649 27.0117 82.5173 26.8694 82.0553 26.8694C81.7519 26.8694 81.4953 26.909 81.2853 26.9884C81.0799 27.063 80.9003 27.1494 80.7463 27.2474C80.5969 27.3407 80.4663 27.427 80.3543 27.5064C80.2469 27.581 80.1396 27.6184 80.0323 27.6184C79.9483 27.6184 79.8736 27.5974 79.8083 27.5554C79.7476 27.5087 79.6986 27.4527 79.6613 27.3874L79.4373 26.9884C79.8293 26.6104 80.2516 26.328 80.7043 26.1414C81.1569 25.9547 81.6586 25.8614 82.2093 25.8614C82.6059 25.8614 82.9583 25.9267 83.2663 26.0574C83.5743 26.188 83.8333 26.37 84.0433 26.6034C84.2533 26.8367 84.4119 27.119 84.5193 27.4504C84.6266 27.7817 84.6803 28.1457 84.6803 28.5424V33.0784ZM81.4463 32.3154C81.6656 32.3154 81.8663 32.2944 82.0483 32.2524C82.2303 32.2057 82.4006 32.1427 82.5593 32.0634C82.7226 31.9794 82.8766 31.879 83.0213 31.7624C83.1706 31.6457 83.3153 31.5127 83.4553 31.3634V29.8864C82.8813 29.905 82.3936 29.9517 81.9923 30.0264C81.5909 30.0964 81.2643 30.1897 81.0123 30.3064C80.7603 30.423 80.5759 30.5607 80.4593 30.7194C80.3473 30.878 80.2913 31.0554 80.2913 31.2514C80.2913 31.438 80.3216 31.599 80.3823 31.7344C80.4429 31.8697 80.5246 31.9817 80.6273 32.0704C80.7299 32.1544 80.8513 32.2174 80.9913 32.2594C81.1313 32.2967 81.2829 32.3154 81.4463 32.3154ZM88.038 22.7674V28.8364H88.36C88.4533 28.8364 88.5303 28.8247 88.591 28.8014C88.6516 28.7734 88.7193 28.7197 88.794 28.6404L91.034 26.2394C91.104 26.1647 91.174 26.104 91.244 26.0574C91.314 26.0107 91.4073 25.9874 91.524 25.9874H92.658L90.047 28.7664C89.9816 28.8457 89.9163 28.9157 89.851 28.9764C89.7903 29.037 89.7203 29.0907 89.641 29.1374C89.725 29.1934 89.7996 29.2587 89.865 29.3334C89.935 29.4034 90.0003 29.485 90.061 29.5784L92.833 33.0784H91.713C91.6103 33.0784 91.5216 33.0597 91.447 33.0224C91.377 32.9804 91.3093 32.9174 91.244 32.8334L88.913 29.9284C88.843 29.8304 88.773 29.7674 88.703 29.7394C88.633 29.7067 88.528 29.6904 88.388 29.6904H88.038V33.0784H86.785V22.7674H88.038ZM99.4678 33.0784H98.9148C98.7934 33.0784 98.6954 33.0597 98.6208 33.0224C98.5461 32.985 98.4971 32.9057 98.4738 32.7844L98.3338 32.1264C98.1471 32.2944 97.9651 32.446 97.7878 32.5814C97.6104 32.712 97.4238 32.824 97.2278 32.9174C97.0318 33.006 96.8218 33.0737 96.5978 33.1204C96.3784 33.167 96.1334 33.1904 95.8628 33.1904C95.5874 33.1904 95.3284 33.153 95.0858 33.0784C94.8478 32.999 94.6401 32.8824 94.4628 32.7284C94.2854 32.5744 94.1431 32.3807 94.0358 32.1474C93.9331 31.9094 93.8818 31.6294 93.8818 31.3074C93.8818 31.0274 93.9588 30.759 94.1128 30.5024C94.2668 30.241 94.5141 30.01 94.8548 29.8094C95.2001 29.6087 95.6504 29.4454 96.2058 29.3194C96.7611 29.1887 97.4401 29.114 98.2428 29.0954V28.5424C98.2428 27.9917 98.1238 27.5764 97.8858 27.2964C97.6524 27.0117 97.3048 26.8694 96.8428 26.8694C96.5394 26.8694 96.2828 26.909 96.0728 26.9884C95.8674 27.063 95.6878 27.1494 95.5338 27.2474C95.3844 27.3407 95.2538 27.427 95.1418 27.5064C95.0344 27.581 94.9271 27.6184 94.8198 27.6184C94.7358 27.6184 94.6611 27.5974 94.5958 27.5554C94.5351 27.5087 94.4861 27.4527 94.4488 27.3874L94.2248 26.9884C94.6168 26.6104 95.0391 26.328 95.4918 26.1414C95.9444 25.9547 96.4461 25.8614 96.9968 25.8614C97.3934 25.8614 97.7458 25.9267 98.0538 26.0574C98.3618 26.188 98.6208 26.37 98.8308 26.6034C99.0408 26.8367 99.1994 27.119 99.3068 27.4504C99.4141 27.7817 99.4678 28.1457 99.4678 28.5424V33.0784ZM96.2338 32.3154C96.4531 32.3154 96.6538 32.2944 96.8358 32.2524C97.0178 32.2057 97.1881 32.1427 97.3468 32.0634C97.5101 31.9794 97.6641 31.879 97.8088 31.7624C97.9581 31.6457 98.1028 31.5127 98.2428 31.3634V29.8864C97.6688 29.905 97.1811 29.9517 96.7798 30.0264C96.3784 30.0964 96.0518 30.1897 95.7998 30.3064C95.5478 30.423 95.3634 30.5607 95.2468 30.7194C95.1348 30.878 95.0788 31.0554 95.0788 31.2514C95.0788 31.438 95.1091 31.599 95.1698 31.7344C95.2304 31.8697 95.3121 31.9817 95.4148 32.0704C95.5174 32.1544 95.6388 32.2174 95.7788 32.2594C95.9188 32.2967 96.0704 32.3154 96.2338 32.3154ZM101.53 33.0784V25.9874H102.244C102.38 25.9874 102.473 26.013 102.524 26.0644C102.576 26.1157 102.611 26.2044 102.629 26.3304L102.713 27.4364C102.956 26.9417 103.255 26.5567 103.609 26.2814C103.969 26.0014 104.389 25.8614 104.869 25.8614C105.065 25.8614 105.243 25.8847 105.401 25.9314C105.56 25.9734 105.707 26.034 105.842 26.1134L105.681 27.0444C105.649 27.161 105.576 27.2194 105.464 27.2194C105.399 27.2194 105.299 27.1984 105.163 27.1564C105.028 27.1097 104.839 27.0864 104.596 27.0864C104.162 27.0864 103.798 27.2124 103.504 27.4644C103.215 27.7164 102.972 28.0827 102.776 28.5634V33.0784H101.53ZM109.501 33.1904C108.941 33.1904 108.509 33.034 108.206 32.7214C107.907 32.4087 107.758 31.9584 107.758 31.3704V27.0304H106.904C106.829 27.0304 106.766 27.0094 106.715 26.9674C106.664 26.9207 106.638 26.8507 106.638 26.7574V26.2604L107.8 26.1134L108.087 23.9224C108.096 23.8524 108.127 23.7964 108.178 23.7544C108.229 23.7077 108.295 23.6844 108.374 23.6844H109.004V26.1274H111.034V27.0304H109.004V31.2864C109.004 31.585 109.076 31.8067 109.221 31.9514C109.366 32.096 109.552 32.1684 109.781 32.1684C109.912 32.1684 110.024 32.152 110.117 32.1194C110.215 32.082 110.299 32.0424 110.369 32.0004C110.439 31.9584 110.497 31.921 110.544 31.8884C110.595 31.851 110.64 31.8324 110.677 31.8324C110.742 31.8324 110.801 31.872 110.852 31.9514L111.216 32.5464C111.001 32.747 110.742 32.9057 110.439 33.0224C110.136 33.1344 109.823 33.1904 109.501 33.1904ZM117.958 33.0784H117.405C117.283 33.0784 117.185 33.0597 117.111 33.0224C117.036 32.985 116.987 32.9057 116.964 32.7844L116.824 32.1264C116.637 32.2944 116.455 32.446 116.278 32.5814C116.1 32.712 115.914 32.824 115.718 32.9174C115.522 33.006 115.312 33.0737 115.088 33.1204C114.868 33.167 114.623 33.1904 114.353 33.1904C114.077 33.1904 113.818 33.153 113.576 33.0784C113.338 32.999 113.13 32.8824 112.953 32.7284C112.775 32.5744 112.633 32.3807 112.526 32.1474C112.423 31.9094 112.372 31.6294 112.372 31.3074C112.372 31.0274 112.449 30.759 112.603 30.5024C112.757 30.241 113.004 30.01 113.345 29.8094C113.69 29.6087 114.14 29.4454 114.696 29.3194C115.251 29.1887 115.93 29.114 116.733 29.0954V28.5424C116.733 27.9917 116.614 27.5764 116.376 27.2964C116.142 27.0117 115.795 26.8694 115.333 26.8694C115.029 26.8694 114.773 26.909 114.563 26.9884C114.357 27.063 114.178 27.1494 114.024 27.2474C113.874 27.3407 113.744 27.427 113.632 27.5064C113.524 27.581 113.417 27.6184 113.31 27.6184C113.226 27.6184 113.151 27.5974 113.086 27.5554C113.025 27.5087 112.976 27.4527 112.939 27.3874L112.715 26.9884C113.107 26.6104 113.529 26.328 113.982 26.1414C114.434 25.9547 114.936 25.8614 115.487 25.8614C115.883 25.8614 116.236 25.9267 116.544 26.0574C116.852 26.188 117.111 26.37 117.321 26.6034C117.531 26.8367 117.689 27.119 117.797 27.4504C117.904 27.7817 117.958 28.1457 117.958 28.5424V33.0784ZM114.724 32.3154C114.943 32.3154 115.144 32.2944 115.326 32.2524C115.508 32.2057 115.678 32.1427 115.837 32.0634C116 31.9794 116.154 31.879 116.299 31.7624C116.448 31.6457 116.593 31.5127 116.733 31.3634V29.8864C116.159 29.905 115.671 29.9517 115.27 30.0264C114.868 30.0964 114.542 30.1897 114.29 30.3064C114.038 30.423 113.853 30.5607 113.737 30.7194C113.625 30.878 113.569 31.0554 113.569 31.2514C113.569 31.438 113.599 31.599 113.66 31.7344C113.72 31.8697 113.802 31.9817 113.905 32.0704C114.007 32.1544 114.129 32.2174 114.269 32.2594C114.409 32.2967 114.56 32.3154 114.724 32.3154ZM122.58 28.3534H126.038V29.4104H122.58V28.3534ZM131.009 33.0784V23.0474H134.208C134.824 23.0474 135.354 23.108 135.797 23.2294C136.245 23.3507 136.611 23.5234 136.896 23.7474C137.185 23.9714 137.398 24.2467 137.533 24.5734C137.673 24.8954 137.743 25.2594 137.743 25.6654C137.743 25.9127 137.703 26.1507 137.624 26.3794C137.549 26.608 137.433 26.8204 137.274 27.0164C137.12 27.2124 136.924 27.3874 136.686 27.5414C136.453 27.6954 136.177 27.8214 135.86 27.9194C136.593 28.064 137.146 28.3277 137.519 28.7104C137.892 29.093 138.079 29.597 138.079 30.2224C138.079 30.647 138 31.0344 137.841 31.3844C137.687 31.7344 137.458 32.0354 137.155 32.2874C136.856 32.5394 136.488 32.7354 136.049 32.8754C135.615 33.0107 135.118 33.0784 134.558 33.0784H131.009ZM132.367 28.5074V32.0004H134.537C134.924 32.0004 135.256 31.956 135.531 31.8674C135.811 31.7787 136.04 31.655 136.217 31.4964C136.399 31.333 136.532 31.1417 136.616 30.9224C136.7 30.6984 136.742 30.4534 136.742 30.1874C136.742 29.6694 136.558 29.261 136.189 28.9624C135.825 28.659 135.272 28.5074 134.53 28.5074H132.367ZM132.367 27.5414H134.159C134.542 27.5414 134.873 27.4994 135.153 27.4154C135.433 27.3314 135.664 27.2147 135.846 27.0654C136.033 26.916 136.17 26.7364 136.259 26.5264C136.348 26.3117 136.392 26.0784 136.392 25.8264C136.392 25.2384 136.215 24.8067 135.86 24.5314C135.505 24.256 134.955 24.1184 134.208 24.1184H132.367V27.5414ZM145.26 33.0784H144.707C144.586 33.0784 144.488 33.0597 144.413 33.0224C144.339 32.985 144.29 32.9057 144.266 32.7844L144.126 32.1264C143.94 32.2944 143.758 32.446 143.58 32.5814C143.403 32.712 143.216 32.824 143.02 32.9174C142.824 33.006 142.614 33.0737 142.39 33.1204C142.171 33.167 141.926 33.1904 141.655 33.1904C141.38 33.1904 141.121 33.153 140.878 33.0784C140.64 32.999 140.433 32.8824 140.255 32.7284C140.078 32.5744 139.936 32.3807 139.828 32.1474C139.726 31.9094 139.674 31.6294 139.674 31.3074C139.674 31.0274 139.751 30.759 139.905 30.5024C140.059 30.241 140.307 30.01 140.647 29.8094C140.993 29.6087 141.443 29.4454 141.998 29.3194C142.554 29.1887 143.233 29.114 144.035 29.0954V28.5424C144.035 27.9917 143.916 27.5764 143.678 27.2964C143.445 27.0117 143.097 26.8694 142.635 26.8694C142.332 26.8694 142.075 26.909 141.865 26.9884C141.66 27.063 141.48 27.1494 141.326 27.2474C141.177 27.3407 141.046 27.427 140.934 27.5064C140.827 27.581 140.72 27.6184 140.612 27.6184C140.528 27.6184 140.454 27.5974 140.388 27.5554C140.328 27.5087 140.279 27.4527 140.241 27.3874L140.017 26.9884C140.409 26.6104 140.832 26.328 141.284 26.1414C141.737 25.9547 142.239 25.8614 142.789 25.8614C143.186 25.8614 143.538 25.9267 143.846 26.0574C144.154 26.188 144.413 26.37 144.623 26.6034C144.833 26.8367 144.992 27.119 145.099 27.4504C145.207 27.7817 145.26 28.1457 145.26 28.5424V33.0784ZM142.026 32.3154C142.246 32.3154 142.446 32.2944 142.628 32.2524C142.81 32.2057 142.981 32.1427 143.139 32.0634C143.303 31.9794 143.457 31.879 143.601 31.7624C143.751 31.6457 143.895 31.5127 144.035 31.3634V29.8864C143.461 29.905 142.974 29.9517 142.572 30.0264C142.171 30.0964 141.844 30.1897 141.592 30.3064C141.34 30.423 141.156 30.5607 141.039 30.7194C140.927 30.878 140.871 31.0554 140.871 31.2514C140.871 31.438 140.902 31.599 140.962 31.7344C141.023 31.8697 141.105 31.9817 141.207 32.0704C141.31 32.1544 141.431 32.2174 141.571 32.2594C141.711 32.2967 141.863 32.3154 142.026 32.3154ZM148.709 22.7674V33.0784H147.463V22.7674H148.709ZM152.466 25.9874V33.0784H151.22V25.9874H152.466ZM152.746 23.7614C152.746 23.8827 152.72 23.997 152.669 24.1044C152.622 24.207 152.557 24.3004 152.473 24.3844C152.394 24.4637 152.3 24.5267 152.193 24.5734C152.086 24.62 151.971 24.6434 151.85 24.6434C151.729 24.6434 151.614 24.62 151.507 24.5734C151.404 24.5267 151.311 24.4637 151.227 24.3844C151.148 24.3004 151.085 24.207 151.038 24.1044C150.991 23.997 150.968 23.8827 150.968 23.7614C150.968 23.64 150.991 23.5257 151.038 23.4184C151.085 23.3064 151.148 23.2107 151.227 23.1314C151.311 23.0474 151.404 22.982 151.507 22.9354C151.614 22.8887 151.729 22.8654 151.85 22.8654C151.971 22.8654 152.086 22.8887 152.193 22.9354C152.3 22.982 152.394 23.0474 152.473 23.1314C152.557 23.2107 152.622 23.3064 152.669 23.4184C152.72 23.5257 152.746 23.64 152.746 23.7614Z" fill="#636363"/>
</g>
<defs>
<filter id="filter0_dd_1_5667" x="0.0545654" y="0.0783691" width="198" height="72" filterUnits="userSpaceOnUse" color-interpolation-filters="sRGB">
<feFlood flood-opacity="0" result="BackgroundImageFix"/>
<feColorMatrix in="SourceAlpha" type="matrix" values="0 0 0 0 0 0 0 0 0 0 0 0 0 0 0 0 0 0 127 0" result="hardAlpha"/>
<feOffset dy="8"/>
<feGaussianBlur stdDeviation="8"/>
<feColorMatrix type="matrix" values="0 0 0 0 0.376471 0 0 0 0 0.380392 0 0 0 0 0.439216 0 0 0 0.16 0"/>
<feBlend mode="normal" in2="BackgroundImageFix" result="effect1_dropShadow_1_5667"/>
<feColorMatrix in="SourceAlpha" type="matrix" values="0 0 0 0 0 0 0 0 0 0 0 0 0 0 0 0 0 0 127 0" result="hardAlpha"/>
<feOffset dy="2"/>
<feGaussianBlur stdDeviation="2"/>
<feColorMatrix type="matrix" values="0 0 0 0 0.156863 0 0 0 0 0.160784 0 0 0 0 0.239216 0 0 0 0.04 0"/>
<feBlend mode="normal" in2="effect1_dropShadow_1_5667" result="effect2_dropShadow_1_5667"/>
<feBlend mode="normal" in="SourceGraphic" in2="effect2_dropShadow_1_5667" result="shape"/>
</filter>
</defs>
</svg>
